<svg width="19" height="19" viewBox="0 0 19 19" fill="none" xmlns="http://www.w3.org/2000/svg">
<g clip-path="url(#clip0_5_51)">
<path d="M7.70864 0.00479889C13.1046 0.00479889 13.1462 0.228643 13.8148 0.73155C14.1692 0.998144 14.8378 1.1828 17.2811 1.34192C17.458 1.3538 17.6272 1.42149 17.74 1.55864C17.7917 1.62218 19.0125 3.40224 19.0125 6.25342C19.0125 9.06305 18.1385 10.3444 18.1016 10.4037C17.9936 10.5777 17.803 10.6828 17.5987 10.6828C15.593 10.6828 12.8119 13.2436 10.9428 17.7134C10.6198 18.4865 10.5527 18.9953 9.3652 18.9953C8.69011 18.9953 7.93248 18.5114 7.55901 17.8909C6.79248 16.6233 7.18139 13.9003 7.54179 12.4456C6.31689 12.4557 4.10042 12.4724 3.04592 12.4724C1.57876 12.4724 0.607389 11.5978 0.578295 10.3188C0.568201 9.89668 0.624014 9.35755 0.745733 9.07849C0.422733 8.75608 0.0065136 8.27099 -0.0118923 7.64517C-0.0344543 6.83767 0.493982 6.22314 0.831825 5.87046C0.754044 5.63592 0.59967 5.32421 0.614513 4.95193C0.65192 4.03636 1.35848 3.44677 1.79845 3.13861C1.76223 2.88805 1.73314 2.41542 1.81389 2.04967C2.13155 0.590832 4.27023 0.00539398 7.70864 0.00539398V0.00479889ZM16.9658 2.54605C14.8378 2.36971 13.7002 2.13161 13.1005 1.67977C12.6362 1.33005 12.7074 1.19171 7.70864 1.19171C6.18389 1.19171 3.20208 1.25524 2.97289 2.30202C2.88205 2.72061 3.3232 3.13208 3.32498 3.13505C3.44551 3.43252 3.31133 3.78164 3.01742 3.90989C3.01267 3.91227 1.82695 4.3368 1.80023 4.99942C1.78242 5.42277 2.07336 5.67749 2.07989 5.68818C2.25267 5.95655 2.18973 6.32467 1.9273 6.50755C1.92433 6.50992 1.15601 6.97542 1.17501 7.61014C1.18926 8.11424 1.85367 8.4693 1.87386 8.48058C2.02229 8.56549 2.13036 8.71214 2.1642 8.88077C2.19745 9.04821 2.16005 9.22455 2.05555 9.36052C2.05555 9.36052 1.75333 9.84027 1.76461 10.2903C1.78658 11.254 2.82267 11.2843 3.04473 11.2843C4.54276 11.2843 8.38908 11.2694 8.38908 11.2694C8.59629 11.2682 8.7762 11.3668 8.88783 11.5325C8.99945 11.6981 9.00717 11.9047 8.94245 12.093C8.36236 13.7632 8.03817 16.3846 8.5767 17.28C8.73523 17.5442 8.77145 17.8078 9.3652 17.8078C9.44773 17.8078 9.64308 17.7425 9.84733 17.2562C11.831 12.5092 14.7945 9.76308 17.2223 9.51549C17.4319 9.03811 17.8255 8.04893 17.8255 6.25402C17.8255 4.4223 17.2455 3.00443 16.9664 2.54605H16.9658Z" fill="black"/>
</g>
<defs>
<clipPath id="clip0_5_51">
<rect width="19" height="19" fill="white" transform="matrix(-1 0 0 -1 19 19)"/>
</clipPath>
</defs>
</svg>
