<svg width="19" height="19" viewBox="0 0 19 19" fill="none" xmlns="http://www.w3.org/2000/svg">
<path d="M11.2914 18.9952C5.89536 18.9952 5.8538 18.7714 5.18524 18.2684C4.83077 18.0019 4.1622 17.8172 1.71892 17.6581C1.54199 17.6462 1.37277 17.5785 1.25996 17.4414C1.2083 17.3778 -0.0124512 15.5978 -0.0124512 12.7466C-0.0124512 9.93695 0.861549 8.65564 0.898361 8.59626C1.00642 8.42229 1.19702 8.3172 1.40127 8.3172C3.40696 8.3172 6.18808 5.75636 8.05721 1.28661C8.38021 0.513544 8.4473 0.00469971 9.6348 0.00469971C10.3099 0.00469971 11.0675 0.488606 11.441 1.10907C12.2075 2.37673 11.8186 5.09967 11.4582 6.55436C12.6831 6.54426 14.8996 6.52764 15.9541 6.52764C17.4212 6.52764 18.3926 7.40223 18.4217 8.68117C18.4318 9.10332 18.376 9.64245 18.2543 9.92151C18.5773 10.2439 18.9935 10.729 19.0119 11.3548C19.0345 12.1623 18.506 12.7769 18.1682 13.1295C18.246 13.3641 18.4003 13.6758 18.3855 14.0481C18.3481 14.9636 17.6415 15.5532 17.2015 15.8614C17.2378 16.1119 17.2669 16.5846 17.1861 16.9503C16.8685 18.4092 14.7298 18.9946 11.2914 18.9946V18.9952ZM2.03421 16.454C4.16221 16.6303 5.29983 16.8684 5.89952 17.3202C6.36383 17.67 6.29258 17.8083 11.2914 17.8083C12.8161 17.8083 15.7979 17.7448 16.0271 16.698C16.118 16.2794 15.6768 15.8679 15.675 15.8649C15.5545 15.5675 15.6887 15.2184 15.9826 15.0901C15.9873 15.0877 17.173 14.6632 17.1998 14.0006C17.2176 13.5772 16.9266 13.3225 16.9201 13.3118C16.7473 13.0435 16.8103 12.6753 17.0727 12.4925C17.0757 12.4901 17.844 12.0246 17.825 11.3899C17.8107 10.8858 17.1463 10.5307 17.1261 10.5194C16.9777 10.4345 16.8696 10.2879 16.8358 10.1192C16.8025 9.95179 16.84 9.77545 16.9445 9.63948C16.9445 9.63948 17.2467 9.15973 17.2354 8.70967C17.2134 7.74601 16.1773 7.71573 15.9553 7.71573C14.4572 7.71573 10.6109 7.73057 10.6109 7.73057C10.4037 7.73176 10.2238 7.6332 10.1122 7.46754C10.0005 7.30189 9.99283 7.09526 10.0575 6.90704C10.6376 5.23682 10.9618 2.61542 10.4233 1.72004C10.2648 1.45582 10.2285 1.1922 9.6348 1.1922C9.55227 1.1922 9.35692 1.25751 9.15267 1.74379C7.16895 6.49082 4.20555 9.23692 1.7777 9.48451C1.56811 9.96189 1.17446 10.9511 1.17446 12.746C1.17446 14.5777 1.75455 15.9956 2.03361 16.454H2.03421Z" fill="black"/>
</svg>
