<svg width="42" height="42" viewBox="0 0 42 42" fill="none" xmlns="http://www.w3.org/2000/svg">
<path fill-rule="evenodd" clip-rule="evenodd" d="M38.4999 21C38.4999 30.6649 30.6648 38.5 20.9999 38.5C11.3349 38.5 3.49991 30.6649 3.49991 21C3.49991 11.335 11.3349 3.5 20.9999 3.5C30.6648 3.5 38.4999 11.335 38.4999 21ZM26.2499 15.75C26.2499 18.6496 23.8995 21 20.9999 21C18.1003 21 15.7499 18.6496 15.7499 15.75C15.7499 12.8505 18.1003 10.5 20.9999 10.5C23.8995 10.5 26.2499 12.8505 26.2499 15.75ZM20.9999 35.875C24.1219 35.875 27.0194 34.9132 29.412 33.2696C30.4688 32.5437 30.9203 31.1609 30.3061 30.0356C29.0324 27.703 26.4078 26.25 20.9997 26.25C15.5919 26.25 12.9674 27.7029 11.6937 30.0356C11.0792 31.1609 11.5308 32.5435 12.5876 33.2694C14.9802 34.913 17.8777 35.875 20.9999 35.875Z" fill="#1C274C"/>
</svg>
